<?xml version="1.0" encoding="UTF-8"?>
<svg width="597px" height="607px" viewBox="0 0 597 607" version="1.1" xmlns="http://www.w3.org/2000/svg" xmlns:xlink="http://www.w3.org/1999/xlink">
    <!-- Generator: Sketch 53.1 (72631) - https://sketchapp.com -->
    <title>Custom Preset 2</title>
    <desc>Created with Sketch.</desc>
    <defs>
        <path d="M178,0 C59.3333333,147.896684 0,279.56335 0,395 C0,521.845026 89,600 178,600 C267,600 356,521.845026 356,395 C356,279.56335 296.666667,147.896684 178,0 Z" id="path-1"></path>
        <path d="M178,12 C59.3333333,153.980816 0,280.380816 0,391.2 C0,512.971225 89,588 178,588 C267,588 356,512.971225 356,391.2 C356,280.380816 296.666667,153.980816 178,12 Z" id="path-3"></path>
    </defs>
    <g id="Custom-Preset-2" stroke="none" stroke-width="1" fill="none" fill-rule="evenodd">
        <g id="whale-copy" transform="translate(0.000000, 7.000000)">
            <g id="wings" transform="translate(0.000000, 318.000000)" fill="#FFFFFF" fill-rule="nonzero" stroke="#FFFFFF" stroke-width="10">
                <path d="M114.445219,118.407904 C115.100812,126.115364 115.96406,133.831903 117.048899,141.531762 L126.804327,139.449121 C123.995256,129.705474 119.85082,122.734901 114.445219,118.407904 Z M8.22793393,142.433008 C6.22183993,141.919604 4.34211297,141.133373 2.55359095,140.070933 L1.73646337,149.058458 C4.03416946,148.207516 5.76760738,146.31815 8.22793393,142.433008 Z" id="wing-left"></path>
                <path d="M588.77416,142.441557 C591.234486,146.326699 592.967924,148.216065 595.26563,149.067007 L594.448503,140.079482 C592.659981,141.141922 590.780254,141.928153 588.77416,142.441557 Z M482.556875,118.416453 C477.151273,122.74345 473.006838,129.714023 470.197766,139.45767 L479.953195,141.540311 C481.038034,133.840452 481.901282,126.123913 482.556875,118.416453 Z" id="wing-right"></path>
            </g>
            <g id="drop-body" transform="translate(120.000000, 0.000000)">
                <mask id="mask-2" fill="white">
                    <use xlink:href="#path-1"></use>
                </mask>
                <g id="drop-copy" fill-rule="nonzero"></g>
                <mask id="mask-4" fill="white">
                    <use xlink:href="#path-3"></use>
                </mask>
                <use id="drop" stroke="#FFFFFF" stroke-width="24" stroke-linecap="round" fill-rule="nonzero" xlink:href="#path-3"></use>
                <g id="ocean" mask="url(#mask-4)" fill-rule="nonzero" stroke="#FFFFFF">
                    <g transform="translate(-7.000000, 319.000000)">
                        <path d="M7.97241951,124.327112 C16.6456356,226.894945 75.5128375,277.268898 187,277.268898 C227.057535,277.268898 260.086039,268.513548 286.845674,252.318603 C309.392352,238.673341 327.002225,220.051691 340.278307,197.638273 C350.658799,180.113353 357.821362,161.280561 362.32339,142.442701 C363.897942,135.854296 365.025499,129.747129 365.779331,124.285933 C365.823842,123.963473 365.866449,123.647464 365.9072,123.338005 C365.632322,123.199395 365.353755,123.053789 365.071607,122.900987 C359.868576,120.08319 354.355222,115.259881 348.639591,108.03727 C335.830375,91.8507842 323.257286,65.3910629 311.37962,26.4847565 C307.408937,38.0316466 302.701168,50.1248805 297.686357,61.3395231 C286.571637,86.1954225 274.691905,105.465102 262.507034,116.449329 C246.036246,131.297159 228.356961,130.939121 214.133688,112.643268 C203.675476,99.1905341 194.651604,75.6102672 186.998464,40.9150283 C179.341982,75.5966681 170.309233,99.1517133 159.835526,112.57131 C145.591794,130.821308 127.903042,131.111012 111.427336,116.220889 C99.2425991,105.208783 87.36114,85.929306 76.2483519,61.0910557 C71.2865324,50.000867 66.6269053,38.0565961 62.6917245,26.6546488 C45.4329766,85.0733845 27.9293042,117.581473 7.97241951,124.327112 Z" id="wave-center" stroke-width="15" fill="none"></path>
                        <path d="M10.758372,137.444766 C47.1414857,234.10649 105.423417,281.93098 186,281.93098 C266.576583,281.93098 324.858514,234.10649 361.241628,137.444766 C332.73941,158.892112 308.299522,162.943959 288.463024,148.546501 C270.227449,135.311003 256.90491,106.721722 248.062904,62.7045091 C234.821241,132.194193 212.454602,172 186,172 C159.545398,172 137.178759,132.194193 123.937096,62.7045091 C115.09509,106.721722 101.772551,135.311003 83.5369764,148.546501 C63.7004782,162.943959 39.26059,158.892112 10.758372,137.444766 Z" id="wave-around" stroke-width="10" fill="#FFFFFF"></path>
                    </g>
                </g>
                <circle id="Oval-Copy" stroke="#FFFFFF" stroke-width="10" fill="#FFFFFF" fill-rule="nonzero" mask="url(#mask-4)" cx="179" cy="211" r="60"></circle>
            </g>
        </g>
    </g>
</svg>