<?xml version="1.0" encoding="UTF-8"?>
<svg width="599px" height="652px" viewBox="0 0 599 652" version="1.1" xmlns="http://www.w3.org/2000/svg" xmlns:xlink="http://www.w3.org/1999/xlink">
    <!-- Generator: Sketch 53.1 (72631) - https://sketchapp.com -->
    <title>Artboard</title>
    <desc>Created with Sketch.</desc>
    <defs>
        <path d="M179,0 C60.3333333,147.896684 1,279.56335 1,395 C1,521.845026 90,600 179,600 C268,600 357,521.845026 357,395 C357,279.56335 297.666667,147.896684 179,0 Z" id="path-1"></path>
        <path d="M179,0 C60.3333333,147.896684 1,279.56335 1,395 C1,521.845026 90,600 179,600 C268,600 357,521.845026 357,395 C357,279.56335 297.666667,147.896684 179,0 Z" id="path-3"></path>
    </defs>
    <g id="Artboard" stroke="none" stroke-width="1" fill="none" fill-rule="evenodd">
        <g id="porpoise" transform="translate(0.000000, 32.000000)">
            <g id="wings" transform="translate(0.000000, 318.000000)" fill="#4770D4" fill-rule="nonzero" stroke="#4770D4" stroke-width="10">
                <path d="M114.445219,118.407904 C115.100812,126.115364 115.96406,133.831903 117.048899,141.531762 L126.804327,139.449121 C123.995256,129.705474 119.85082,122.734901 114.445219,118.407904 Z M8.22793393,142.433008 C6.22183993,141.919604 4.34211297,141.133373 2.55359095,140.070933 L1.73646337,149.058458 C4.03416946,148.207516 5.76760738,146.31815 8.22793393,142.433008 Z" id="wing-left"></path>
                <path d="M590.77416,142.441557 C593.234486,146.326699 594.967924,148.216065 597.26563,149.067007 L596.448503,140.079482 C594.659981,141.141922 592.780254,141.928153 590.77416,142.441557 Z M484.556875,118.416453 C479.151273,122.74345 475.006838,129.714023 472.197766,139.45767 L481.953195,141.540311 C483.038034,133.840452 483.901282,126.123913 484.556875,118.416453 Z" id="wing-right"></path>
            </g>
            <g id="drop-body" transform="translate(120.000000, 0.000000)">
                <g id="ocean" transform="translate(0.000000, 319.000000)" fill-rule="nonzero" stroke-width="10">
                    <path d="M6.3005828,122.457889 C14.1538594,227.786154 71.8684269,279.768898 181,279.768898 C219.923092,279.768898 252.08566,270.911535 278.184642,254.502163 C300.221232,240.646963 317.437883,221.733122 330.408403,198.984002 C340.537262,181.218897 347.520268,162.144195 351.909269,143.065085 C353.444936,136.389498 354.545378,130.197405 355.282058,124.652917 C355.41704,123.637003 355.534295,122.682891 355.63514,121.793575 C354.925672,121.479811 354.176997,121.105316 353.392016,120.663662 C348.661767,118.002286 343.587577,113.390544 338.272506,106.412909 C325.436818,89.5621963 312.772871,61.2096471 300.842008,18.7848811 C296.64263,32.2280856 291.304621,46.8742359 285.54529,60.2547262 C274.973498,84.8158747 263.692888,103.825323 252.264611,114.528149 C237.301618,128.541311 221.667634,128.212381 208.814295,111.035743 C198.015707,96.6049845 188.739947,69.8906857 180.999281,29.6550093 C173.256432,69.878745 163.972449,96.5661834 153.158878,110.960042 C140.288803,128.091298 124.644677,128.35748 109.674369,114.301728 C98.2447797,103.570387 86.9619832,84.5503518 76.3916591,60.0057847 C70.6691711,46.7180191 65.3649147,32.1895872 61.1921393,18.870468 C43.6324442,82.8053243 25.9743513,117.255268 6.3005828,122.457889 Z" id="wave-center" stroke="#4770D4" fill="#4770D4"></path>
                    <path d="M10.65984,137.71188 C45.8681804,234.213616 102.200127,281.93098 180,281.93098 C257.799873,281.93098 314.13182,234.213616 349.34016,137.71188 C321.851273,158.941333 298.210581,162.907935 279,148.5 C261.455338,135.341504 248.620154,107.055071 240.065686,63.5397535 C227.227698,132.53651 205.645653,172 180,172 C154.354347,172 132.772302,132.53651 119.934314,63.5397535 C111.379848,107.055067 98.5446633,135.341503 81,148.5 C61.7894194,162.907935 38.1487265,158.941333 10.65984,137.71188 Z" id="wave-around" stroke="#48A6DB" fill="#48A6DB"></path>
                </g>
                <mask id="mask-2" fill="white">
                    <use xlink:href="#path-1"></use>
                </mask>
                <use id="drop-copy" stroke="#48A6DB" stroke-width="20" stroke-linecap="round" fill-rule="nonzero" xlink:href="#path-1"></use>
                <mask id="mask-4" fill="white">
                    <use xlink:href="#path-3"></use>
                </mask>
                <path stroke="#48A6DB" stroke-width="20" d="M186.799694,-6.25817708 C306.762382,143.253765 367,276.92713 367,395 C367,457.807367 345.853725,512.473206 308.650569,551.927358 C273.676795,589.017238 226.659057,610 179,610 C131.340943,610 84.3232049,589.017238 49.3494305,551.927358 C12.146275,512.473206 -9,457.807367 -9,395 C-9,276.92713 51.2376177,143.253765 171.200306,-6.25817708 L179,-15.979094 L186.799694,-6.25817708 Z"></path>
                <circle id="Oval-Copy" stroke="#C16A25" stroke-width="10" fill="#C16A25" fill-rule="nonzero" mask="url(#mask-4)" cx="180" cy="211" r="60"></circle>
            </g>
        </g>
    </g>
</svg>